<svg id="svg" version="1.1" xmlns="http://www.w3.org/2000/svg" xmlns:xlink="http://www.w3.org/1999/xlink" width="400" height="400" viewBox="0, 0, 400,400"><g id="svgg"><path id="path0" d="M196.716 47.329 C 192.435 50.632,185.610 55.681,183.417 57.167 C 182.308 57.918,181.310 58.647,181.200 58.786 C 181.090 58.925,180.370 59.471,179.600 60.000 C 178.830 60.529,177.909 61.286,177.553 61.681 C 177.197 62.076,176.747 62.403,176.553 62.407 C 176.359 62.411,175.660 62.848,175.000 63.377 C 172.564 65.330,168.528 68.300,166.000 69.997 C 164.570 70.958,163.109 72.071,162.753 72.472 C 162.397 72.872,161.929 73.200,161.712 73.200 C 161.496 73.200,160.754 73.740,160.063 74.400 C 159.372 75.060,158.652 75.600,158.463 75.600 C 158.274 75.600,157.554 76.140,156.863 76.800 C 156.172 77.460,155.471 78.001,155.304 78.002 C 155.137 78.003,154.425 78.543,153.722 79.202 C 151.613 81.178,151.600 81.132,151.600 71.600 C 151.600 66.000,151.455 62.800,151.200 62.800 C 150.947 62.800,150.769 66.222,150.716 72.100 L 150.633 81.400 150.392 71.200 C 150.260 65.590,150.118 60.955,150.076 60.900 C 150.034 60.845,142.260 60.800,132.800 60.800 C 123.340 60.800,115.560 60.845,115.511 60.900 C 115.462 60.955,115.324 71.710,115.203 84.800 L 114.984 108.600 114.892 85.876 C 114.831 70.852,114.664 63.237,114.400 63.400 C 114.141 63.560,114.000 71.512,114.000 85.948 L 114.000 108.249 112.189 109.924 C 111.193 110.846,110.153 111.600,109.878 111.600 C 109.602 111.600,109.117 111.960,108.800 112.400 C 108.483 112.840,108.057 113.200,107.854 113.200 C 107.422 113.200,96.264 121.605,96.067 122.079 C 95.993 122.256,95.705 122.400,95.426 122.400 C 95.147 122.400,94.394 122.895,93.752 123.500 C 93.111 124.105,92.094 124.855,91.493 125.168 C 90.892 125.480,90.400 125.885,90.400 126.068 C 90.400 126.250,90.175 126.401,89.900 126.402 C 89.625 126.403,88.825 126.943,88.122 127.602 C 87.419 128.261,86.699 128.801,86.522 128.802 C 86.345 128.803,85.652 129.298,84.981 129.902 C 84.311 130.506,83.487 131.180,83.150 131.400 C 81.962 132.175,78.698 134.611,77.655 135.500 C 77.075 135.994,76.415 136.399,76.188 136.400 C 75.962 136.400,75.517 136.760,75.200 137.200 C 74.883 137.640,74.427 138.000,74.187 138.000 C 73.947 138.000,73.402 138.319,72.975 138.708 C 71.799 139.782,56.497 151.200,56.234 151.200 C 56.019 151.200,49.635 155.934,49.200 156.417 C 49.090 156.539,48.370 157.071,47.600 157.600 C 46.830 158.129,45.909 158.886,45.553 159.281 C 45.197 159.676,44.729 160.000,44.512 160.000 C 44.296 160.000,43.554 160.540,42.863 161.200 C 42.172 161.860,41.460 162.400,41.279 162.400 C 41.099 162.400,40.602 162.720,40.175 163.112 C 39.749 163.504,38.550 164.394,37.511 165.091 C 33.360 167.875,32.040 169.027,31.796 170.077 C 31.630 170.796,31.356 171.081,30.973 170.934 C 30.633 170.804,30.400 170.958,30.400 171.314 C 30.400 171.644,30.850 172.026,31.400 172.164 C 31.950 172.302,32.400 172.586,32.400 172.795 C 32.400 173.004,32.109 173.063,31.753 172.927 C 30.891 172.596,31.664 174.118,32.746 174.879 C 33.152 175.166,33.606 175.781,33.753 176.247 C 34.194 177.644,35.567 178.697,36.018 177.984 C 36.337 177.481,36.389 177.486,36.394 178.020 C 36.397 178.361,36.219 178.821,35.997 179.043 C 35.727 179.313,35.997 179.830,36.816 180.616 C 37.836 181.593,38.100 181.688,38.413 181.193 C 38.733 180.686,38.789 180.697,38.794 181.267 C 38.797 181.633,38.575 182.025,38.300 182.136 C 37.960 182.274,37.935 182.445,38.219 182.670 C 38.450 182.851,39.071 183.630,39.600 184.400 C 40.129 185.170,40.886 186.091,41.281 186.447 C 41.676 186.803,42.000 187.271,42.000 187.488 C 42.000 187.704,42.540 188.446,43.200 189.137 C 43.860 189.828,44.400 190.529,44.400 190.696 C 44.401 191.310,46.369 193.266,46.750 193.031 C 46.966 192.898,47.257 193.151,47.398 193.594 C 47.741 194.675,49.579 194.659,50.839 193.565 C 51.367 193.105,52.295 192.437,52.900 192.079 C 53.505 191.720,54.000 191.286,54.000 191.114 C 54.000 190.941,54.243 190.800,54.541 190.800 C 54.838 190.800,55.646 190.260,56.337 189.600 C 57.028 188.940,57.748 188.400,57.937 188.400 C 58.126 188.400,58.846 187.860,59.537 187.200 C 60.228 186.540,60.910 186.000,61.052 186.000 C 61.316 186.000,68.983 180.230,69.902 179.339 C 70.179 179.071,70.764 178.738,71.202 178.599 C 71.641 178.460,72.000 178.190,72.000 178.000 C 72.000 177.810,72.315 177.554,72.700 177.431 C 73.085 177.309,73.850 176.797,74.400 176.293 C 74.950 175.789,76.030 174.941,76.800 174.408 C 77.570 173.875,78.290 173.331,78.400 173.200 C 78.510 173.069,79.230 172.523,80.000 171.986 C 80.770 171.450,81.670 170.791,82.000 170.523 C 83.291 169.471,85.636 167.728,87.816 166.200 C 89.071 165.320,90.333 164.375,90.621 164.100 C 90.908 163.825,91.302 163.600,91.496 163.600 C 91.690 163.600,92.198 163.283,92.625 162.895 C 93.396 162.194,105.909 152.807,108.200 151.211 C 110.598 149.540,116.205 145.429,116.400 145.198 C 116.510 145.068,117.230 144.529,118.000 144.000 C 118.770 143.471,119.691 142.714,120.047 142.319 C 120.403 141.924,120.871 141.600,121.088 141.600 C 121.304 141.600,122.046 141.060,122.737 140.400 C 123.428 139.740,124.148 139.200,124.337 139.200 C 124.526 139.200,125.246 138.660,125.937 138.000 C 126.628 137.340,127.392 136.800,127.636 136.800 C 127.880 136.800,128.583 136.260,129.200 135.600 C 129.817 134.940,130.493 134.400,130.703 134.400 C 131.075 134.400,134.469 131.949,135.529 130.916 C 135.819 130.632,136.179 130.397,136.329 130.394 C 136.478 130.390,137.209 129.850,137.954 129.194 C 138.699 128.537,139.419 127.997,139.554 127.992 C 139.689 127.988,140.518 127.358,141.396 126.592 C 142.273 125.827,143.178 125.200,143.407 125.200 C 143.636 125.200,144.083 124.840,144.400 124.400 C 144.717 123.960,145.180 123.600,145.429 123.600 C 145.678 123.600,146.417 123.105,147.072 122.500 C 147.726 121.895,148.538 121.220,148.875 121.000 C 150.383 120.016,152.210 118.691,158.251 114.200 C 163.917 109.987,174.844 101.883,179.130 98.713 C 179.939 98.116,181.590 96.965,182.800 96.156 C 184.010 95.347,185.291 94.351,185.647 93.943 C 186.003 93.534,186.471 93.200,186.688 93.200 C 186.904 93.200,187.646 92.660,188.337 92.000 C 189.028 91.340,189.748 90.800,189.937 90.800 C 190.126 90.800,190.846 90.260,191.537 89.600 C 192.228 88.940,192.948 88.400,193.137 88.400 C 193.326 88.400,194.046 87.860,194.737 87.200 C 195.428 86.540,196.134 86.000,196.307 86.000 C 196.480 86.000,197.213 85.460,197.936 84.800 C 198.658 84.140,199.527 83.600,199.867 83.600 C 200.207 83.600,201.167 84.140,202.000 84.800 C 202.833 85.460,203.626 86.000,203.761 86.000 C 203.897 86.000,204.572 86.540,205.263 87.200 C 205.954 87.860,206.674 88.400,206.863 88.400 C 207.052 88.400,207.772 88.940,208.463 89.600 C 209.154 90.260,209.874 90.800,210.063 90.800 C 210.252 90.800,210.972 91.340,211.663 92.000 C 212.354 92.660,213.122 93.200,213.371 93.200 C 213.620 93.200,214.083 93.560,214.400 94.000 C 214.717 94.440,215.173 94.800,215.413 94.800 C 215.653 94.800,216.198 95.115,216.625 95.500 C 217.051 95.885,218.210 96.796,219.200 97.523 C 220.190 98.251,223.752 100.906,227.117 103.423 C 230.481 105.941,233.308 108.000,233.399 108.000 C 233.490 108.000,236.858 110.475,240.883 113.500 C 247.869 118.751,249.723 120.105,251.150 121.000 C 251.502 121.220,252.082 121.715,252.441 122.100 C 252.800 122.485,253.271 122.800,253.488 122.800 C 253.704 122.800,254.446 123.340,255.137 124.000 C 255.828 124.660,256.531 125.200,256.701 125.200 C 256.870 125.200,257.727 125.827,258.604 126.592 C 259.482 127.358,260.311 127.988,260.446 127.992 C 260.581 127.997,261.301 128.537,262.046 129.194 C 262.791 129.850,263.522 130.390,263.671 130.394 C 263.821 130.397,264.181 130.632,264.471 130.916 C 265.481 131.900,268.917 134.400,269.261 134.400 C 269.452 134.400,270.172 134.940,270.863 135.600 C 271.554 136.260,272.274 136.800,272.463 136.800 C 272.652 136.800,273.372 137.340,274.063 138.000 C 274.754 138.660,275.474 139.200,275.663 139.200 C 275.852 139.200,276.572 139.740,277.263 140.400 C 277.954 141.060,278.696 141.600,278.912 141.600 C 279.129 141.600,279.597 141.924,279.953 142.319 C 280.309 142.714,281.230 143.471,282.000 144.000 C 282.770 144.529,283.490 145.060,283.600 145.181 C 284.098 145.726,287.181 148.000,287.424 148.000 C 287.573 148.000,288.287 148.495,289.012 149.100 C 289.736 149.705,290.930 150.615,291.664 151.123 C 293.932 152.691,306.554 162.149,307.375 162.895 C 307.802 163.283,308.310 163.600,308.504 163.600 C 308.698 163.600,309.092 163.825,309.379 164.100 C 309.667 164.375,310.929 165.320,312.184 166.200 C 314.364 167.728,316.709 169.471,318.000 170.523 C 318.330 170.791,319.230 171.450,320.000 171.986 C 320.770 172.523,321.490 173.069,321.600 173.200 C 321.710 173.331,322.430 173.874,323.200 174.406 C 323.970 174.938,324.838 175.605,325.129 175.887 C 325.419 176.169,325.805 176.400,325.986 176.400 C 326.167 176.400,326.893 176.940,327.600 177.600 C 328.307 178.260,329.033 178.800,329.214 178.800 C 329.395 178.800,329.781 179.031,330.071 179.313 C 331.006 180.219,338.679 186.000,338.948 186.000 C 339.090 186.000,339.772 186.540,340.463 187.200 C 341.154 187.860,341.962 188.400,342.259 188.400 C 342.557 188.400,342.800 188.550,342.800 188.732 C 342.800 188.915,343.295 189.319,343.900 189.630 C 344.505 189.940,345.270 190.474,345.600 190.816 C 345.930 191.158,346.830 191.875,347.600 192.408 C 348.370 192.942,349.349 193.698,349.775 194.089 C 350.921 195.139,352.800 194.555,352.800 193.148 C 352.800 192.931,352.990 192.870,353.222 193.013 C 353.623 193.261,355.598 191.336,355.600 190.696 C 355.600 190.529,356.140 189.828,356.800 189.137 C 357.460 188.446,358.000 187.704,358.000 187.488 C 358.000 187.271,358.324 186.803,358.719 186.447 C 359.114 186.091,359.871 185.170,360.400 184.400 C 360.929 183.630,361.550 182.851,361.781 182.670 C 362.065 182.445,362.040 182.274,361.700 182.136 C 361.425 182.025,361.203 181.633,361.206 181.267 C 361.211 180.697,361.267 180.686,361.587 181.193 C 361.900 181.688,362.164 181.593,363.184 180.616 C 364.003 179.830,364.273 179.313,364.003 179.043 C 363.781 178.821,363.603 178.361,363.606 178.020 C 363.611 177.486,363.663 177.481,363.982 177.984 C 364.433 178.697,365.806 177.644,366.247 176.247 C 366.394 175.781,366.848 175.166,367.254 174.879 C 368.336 174.118,369.109 172.596,368.247 172.927 C 367.891 173.063,367.600 173.004,367.600 172.795 C 367.600 172.586,368.050 172.302,368.600 172.164 C 369.150 172.026,369.600 171.644,369.600 171.314 C 369.600 170.958,369.367 170.804,369.027 170.934 C 368.645 171.081,368.370 170.795,368.203 170.077 C 367.969 169.076,364.199 165.853,361.720 164.536 C 361.236 164.278,360.437 163.693,359.944 163.234 C 359.452 162.775,358.901 162.400,358.721 162.400 C 358.540 162.400,357.828 161.860,357.137 161.200 C 356.446 160.540,355.704 160.000,355.488 160.000 C 355.271 160.000,354.803 159.676,354.447 159.281 C 354.091 158.886,353.170 158.129,352.400 157.600 C 351.630 157.071,350.910 156.535,350.800 156.408 C 350.532 156.099,344.387 151.506,343.564 151.000 C 342.878 150.578,340.610 148.975,338.596 147.488 C 333.899 144.022,327.671 139.295,327.025 138.706 C 326.598 138.318,326.053 138.000,325.813 138.000 C 325.573 138.000,325.117 137.640,324.800 137.200 C 324.483 136.760,324.038 136.400,323.812 136.400 C 323.585 136.399,322.925 135.994,322.345 135.500 C 321.302 134.611,318.038 132.175,316.850 131.400 C 316.513 131.180,315.689 130.506,315.019 129.902 C 314.348 129.298,313.655 128.803,313.478 128.802 C 313.301 128.801,312.581 128.261,311.878 127.602 C 311.175 126.943,310.375 126.403,310.100 126.402 C 309.825 126.401,309.600 126.250,309.600 126.068 C 309.600 125.885,309.105 125.480,308.500 125.168 C 307.895 124.855,306.923 124.105,306.340 123.500 C 305.756 122.895,305.006 122.400,304.673 122.400 C 304.339 122.400,304.007 122.256,303.933 122.079 C 303.736 121.605,292.578 113.200,292.146 113.200 C 291.943 113.200,291.517 112.840,291.200 112.400 C 290.883 111.960,290.369 111.600,290.059 111.600 C 289.748 111.600,289.203 111.276,288.847 110.881 C 288.491 110.486,287.570 109.723,286.800 109.187 C 286.030 108.650,285.130 107.986,284.800 107.710 C 283.714 106.802,274.892 100.240,272.016 98.200 C 269.024 96.078,263.404 91.920,262.400 91.087 C 262.070 90.813,261.170 90.150,260.400 89.614 C 259.630 89.077,258.910 88.531,258.800 88.400 C 258.690 88.269,257.970 87.725,257.200 87.192 C 256.430 86.659,255.352 85.813,254.804 85.311 C 254.256 84.810,253.684 84.400,253.533 84.400 C 253.381 84.400,253.019 84.170,252.729 83.888 C 252.438 83.607,251.345 82.842,250.301 82.188 C 249.256 81.535,248.401 80.865,248.401 80.700 C 248.400 80.535,248.210 80.400,247.978 80.400 C 247.746 80.400,246.981 79.861,246.278 79.202 C 245.575 78.543,244.863 78.003,244.696 78.002 C 244.529 78.001,243.828 77.460,243.137 76.800 C 242.446 76.140,241.726 75.600,241.537 75.600 C 241.348 75.600,240.628 75.060,239.937 74.400 C 239.246 73.740,238.504 73.200,238.288 73.200 C 238.071 73.200,237.603 72.872,237.247 72.472 C 236.891 72.071,235.452 70.946,234.049 69.972 C 232.645 68.997,231.002 67.840,230.397 67.400 C 229.791 66.960,228.419 65.977,227.348 65.217 C 226.277 64.456,225.051 63.511,224.625 63.117 C 224.198 62.722,223.679 62.400,223.471 62.400 C 223.264 62.400,222.803 62.076,222.447 61.681 C 222.091 61.286,221.170 60.529,220.400 60.000 C 219.630 59.471,218.910 58.940,218.800 58.819 C 218.368 58.346,215.235 56.000,215.034 56.000 C 214.917 56.000,212.791 54.480,210.311 52.623 C 198.534 43.807,200.359 44.518,196.716 47.329 M198.600 104.080 C 198.160 104.331,197.509 104.865,197.153 105.268 C 196.797 105.671,196.329 106.000,196.112 106.000 C 195.896 106.000,195.154 106.540,194.463 107.200 C 193.772 107.860,193.052 108.400,192.863 108.400 C 192.674 108.400,191.954 108.940,191.263 109.600 C 190.572 110.260,189.871 110.801,189.704 110.802 C 189.537 110.803,188.825 111.343,188.122 112.002 C 187.419 112.661,186.699 113.200,186.522 113.201 C 186.345 113.201,185.570 113.742,184.800 114.403 C 184.030 115.063,183.085 115.705,182.700 115.829 C 182.315 115.953,182.000 116.210,182.000 116.400 C 182.000 116.590,181.685 116.846,181.300 116.969 C 180.915 117.091,180.150 117.603,179.600 118.107 C 179.050 118.611,177.970 119.459,177.200 119.992 C 176.430 120.525,175.710 121.069,175.600 121.200 C 175.490 121.331,174.770 121.871,174.000 122.400 C 173.230 122.929,172.510 123.469,172.400 123.600 C 172.290 123.731,171.570 124.271,170.800 124.800 C 170.030 125.329,169.310 125.860,169.200 125.981 C 168.616 126.621,165.597 128.800,165.293 128.800 C 165.099 128.800,164.503 129.269,163.970 129.842 C 163.436 130.416,162.640 131.050,162.200 131.253 C 161.330 131.653,161.237 131.720,154.196 136.991 C 151.558 138.967,149.168 140.805,148.885 141.077 C 148.602 141.349,147.837 141.887,147.185 142.272 C 146.533 142.657,146.000 143.114,146.000 143.286 C 146.000 143.459,145.757 143.600,145.459 143.600 C 145.162 143.600,144.354 144.140,143.663 144.800 C 142.972 145.460,142.271 146.003,142.104 146.007 C 141.937 146.011,141.260 146.450,140.600 146.981 C 139.940 147.513,137.690 149.212,135.600 150.757 C 133.510 152.301,131.439 153.888,130.998 154.283 C 130.558 154.677,129.703 155.255,129.098 155.568 C 128.494 155.880,128.000 156.285,128.000 156.468 C 128.000 156.650,127.757 156.800,127.459 156.800 C 127.162 156.800,126.354 157.340,125.663 158.000 C 124.972 158.660,124.271 159.201,124.104 159.202 C 123.937 159.203,123.225 159.743,122.522 160.402 C 121.819 161.061,121.099 161.601,120.922 161.602 C 120.745 161.603,120.025 162.143,119.322 162.802 C 118.619 163.461,117.876 164.000,117.671 164.000 C 117.466 164.000,117.054 164.294,116.755 164.654 C 116.456 165.014,115.579 165.713,114.806 166.208 C 114.033 166.702,112.860 167.577,112.200 168.153 C 111.540 168.728,110.775 169.199,110.500 169.200 C 110.225 169.200,110.000 169.341,110.000 169.514 C 110.000 169.686,109.467 170.143,108.815 170.528 C 108.163 170.913,107.398 171.453,107.115 171.727 C 106.832 172.002,105.970 172.662,105.200 173.194 C 104.430 173.726,103.710 174.268,103.600 174.399 C 103.490 174.530,101.150 176.281,98.400 178.292 C 95.650 180.303,92.835 182.409,92.145 182.974 C 91.455 183.538,90.781 184.000,90.647 184.000 C 90.423 184.000,84.051 188.717,83.600 189.217 C 83.490 189.339,82.770 189.871,82.000 190.400 C 81.230 190.929,80.309 191.686,79.953 192.081 C 79.597 192.476,79.129 192.800,78.912 192.800 C 78.696 192.800,77.954 193.340,77.263 194.000 C 76.572 194.660,75.871 195.200,75.704 195.201 C 75.537 195.201,74.770 195.741,74.000 196.400 C 73.230 197.059,72.468 197.599,72.306 197.599 C 72.015 197.600,65.494 202.506,64.461 203.501 C 64.165 203.787,64.013 204.258,64.125 204.548 C 64.236 204.838,63.984 205.324,63.564 205.626 C 62.818 206.163,62.798 207.718,62.701 270.588 L 62.602 335.000 62.500 270.700 C 62.432 228.299,62.262 206.400,61.999 206.400 C 61.735 206.400,61.600 228.197,61.600 270.600 L 61.600 334.800 39.633 334.800 C 18.413 334.800,16.400 334.873,16.400 335.639 C 16.400 335.839,26.285 336.040,39.100 336.100 L 61.800 336.207 38.900 336.303 C 18.467 336.390,16.000 336.467,16.000 337.024 C 16.000 337.379,15.809 337.529,15.555 337.372 C 14.648 336.812,14.412 338.364,14.406 344.926 C 14.400 351.411,14.805 354.086,15.600 352.801 C 15.808 352.463,16.005 352.713,16.188 353.547 L 16.464 354.800 200.000 354.800 L 383.536 354.800 383.812 353.547 C 383.995 352.713,384.192 352.463,384.400 352.801 C 385.195 354.086,385.600 351.411,385.594 344.926 C 385.588 338.364,385.352 336.812,384.445 337.372 C 384.191 337.529,384.000 337.379,384.000 337.024 C 384.000 336.467,381.533 336.390,361.100 336.303 L 338.200 336.207 360.900 336.100 C 373.715 336.040,383.600 335.839,383.600 335.639 C 383.600 334.873,381.587 334.800,360.367 334.800 L 338.400 334.800 338.400 270.600 C 338.400 228.197,338.265 206.400,338.001 206.400 C 337.738 206.400,337.568 228.299,337.500 270.700 L 337.398 335.000 337.299 270.588 C 337.202 207.718,337.182 206.163,336.436 205.626 C 336.016 205.324,335.764 204.838,335.875 204.548 C 335.987 204.258,335.835 203.787,335.539 203.501 C 334.246 202.255,327.947 197.600,327.554 197.600 C 327.316 197.600,326.617 197.060,326.000 196.400 C 325.383 195.740,324.680 195.200,324.436 195.200 C 324.192 195.200,323.428 194.660,322.737 194.000 C 322.046 193.340,321.304 192.800,321.088 192.800 C 320.871 192.800,320.403 192.476,320.047 192.081 C 319.691 191.686,318.770 190.929,318.000 190.400 C 317.230 189.871,316.510 189.334,316.400 189.205 C 316.021 188.764,306.862 182.000,306.643 182.000 C 306.430 182.000,296.803 174.846,296.400 174.388 C 296.290 174.264,295.570 173.729,294.800 173.200 C 294.030 172.671,293.310 172.131,293.200 172.000 C 293.090 171.869,292.370 171.325,291.600 170.792 C 290.830 170.258,289.851 169.502,289.425 169.111 C 288.998 168.720,288.479 168.400,288.271 168.400 C 288.064 168.400,287.603 168.067,287.247 167.659 C 286.891 167.252,286.060 166.640,285.399 166.300 C 284.739 165.960,283.856 165.303,283.437 164.841 C 283.018 164.378,282.514 164.000,282.316 164.000 C 282.118 164.000,281.381 163.461,280.678 162.802 C 279.975 162.143,279.255 161.603,279.078 161.602 C 278.901 161.601,278.181 161.061,277.478 160.402 C 276.775 159.743,276.063 159.203,275.896 159.202 C 275.729 159.201,275.028 158.660,274.337 158.000 C 273.646 157.340,272.878 156.800,272.629 156.800 C 272.380 156.800,271.917 156.440,271.600 156.000 C 271.283 155.560,270.787 155.200,270.497 155.200 C 270.208 155.200,269.573 154.832,269.086 154.383 C 268.599 153.933,266.490 152.301,264.400 150.757 C 262.310 149.212,260.060 147.513,259.400 146.981 C 258.740 146.450,258.063 146.011,257.896 146.007 C 257.729 146.003,257.028 145.460,256.337 144.800 C 255.646 144.140,254.878 143.600,254.629 143.600 C 254.380 143.600,253.917 143.240,253.600 142.800 C 253.283 142.360,252.891 142.000,252.728 142.000 C 252.566 142.000,249.729 139.975,246.425 137.500 C 237.241 130.622,235.060 129.018,234.595 128.800 C 234.143 128.588,231.139 126.359,230.800 125.983 C 230.690 125.861,229.970 125.329,229.200 124.800 C 228.430 124.271,227.710 123.731,227.600 123.600 C 227.490 123.469,226.770 122.929,226.000 122.400 C 225.230 121.871,224.510 121.331,224.400 121.200 C 224.290 121.069,223.570 120.525,222.800 119.992 C 222.030 119.459,220.950 118.611,220.400 118.107 C 219.850 117.603,219.085 117.091,218.700 116.969 C 218.315 116.846,218.000 116.590,218.000 116.400 C 218.000 116.210,217.619 115.933,217.152 115.785 C 216.686 115.637,215.759 114.995,215.093 114.358 C 214.427 113.721,213.721 113.200,213.524 113.200 C 213.327 113.200,212.775 112.836,212.297 112.390 C 211.819 111.945,211.206 111.666,210.934 111.770 C 210.633 111.885,210.527 111.733,210.663 111.380 C 210.786 111.061,210.685 110.800,210.439 110.800 C 210.194 110.800,209.428 110.260,208.737 109.600 C 208.046 108.940,207.326 108.400,207.137 108.400 C 206.948 108.400,206.228 107.860,205.537 107.200 C 204.846 106.540,204.104 106.000,203.888 106.000 C 203.671 106.000,203.203 105.668,202.847 105.263 C 201.481 103.706,199.987 103.290,198.600 104.080 M205.900 272.300 C 205.840 281.485,205.791 273.970,205.791 255.600 C 205.791 237.230,205.840 229.715,205.900 238.900 C 205.960 248.085,205.960 263.115,205.900 272.300 M254.300 272.500 C 254.240 281.575,254.191 274.150,254.191 256.000 C 254.191 237.850,254.240 230.425,254.300 239.500 C 254.360 248.575,254.360 263.425,254.300 272.500 M146.000 279.194 L 146.000 334.787 122.400 334.894 L 98.800 335.000 98.800 279.300 L 98.800 223.600 122.400 223.600 L 146.000 223.600 146.000 279.194 M147.100 307.100 C 147.042 322.445,146.994 309.890,146.994 279.200 C 146.994 248.510,147.042 235.955,147.100 251.300 C 147.158 266.645,147.158 291.755,147.100 307.100 M204.400 255.600 L 204.400 287.600 189.000 287.600 L 173.600 287.600 173.600 255.600 L 173.600 223.600 189.000 223.600 L 204.400 223.600 204.400 255.600 M220.300 271.700 C 220.240 280.555,220.191 273.310,220.191 255.600 C 220.191 237.890,220.240 230.645,220.300 239.500 C 220.360 248.355,220.360 262.845,220.300 271.700 M253.102 255.500 L 253.000 287.400 237.100 287.505 L 221.200 287.609 221.200 255.605 L 221.200 223.600 237.202 223.600 L 253.205 223.600 253.102 255.500 M300.400 255.605 L 300.400 287.610 285.100 287.505 L 269.800 287.400 269.698 255.500 L 269.595 223.600 284.998 223.600 L 300.400 223.600 300.400 255.605 M301.900 271.700 C 301.840 280.555,301.791 273.310,301.791 255.600 C 301.791 237.890,301.840 230.645,301.900 239.500 C 301.960 248.355,301.960 262.845,301.900 271.700 M196.674 288.700 C 192.314 288.764,185.294 288.764,181.074 288.699 C 176.853 288.635,180.420 288.582,189.000 288.582 C 197.580 288.582,201.033 288.635,196.674 288.700 M245.300 288.700 C 240.845 288.764,233.555 288.764,229.100 288.700 C 224.645 288.635,228.290 288.582,237.200 288.582 C 246.110 288.582,249.755 288.635,245.300 288.700 M292.674 288.700 C 288.314 288.764,281.294 288.764,277.074 288.699 C 272.853 288.635,276.420 288.582,285.000 288.582 C 293.580 288.582,297.033 288.635,292.674 288.700 M135.329 336.300 C 128.690 336.361,117.710 336.361,110.929 336.300 C 104.148 336.238,109.580 336.188,123.000 336.188 C 136.420 336.188,141.968 336.238,135.329 336.300 " stroke="none" fill="#242424" fill-rule="evenodd"></path><path id="path1" d="" stroke="none" fill="#282424" fill-rule="evenodd"></path><path id="path2" d="" stroke="none" fill="#282424" fill-rule="evenodd"></path><path id="path3" d="" stroke="none" fill="#282424" fill-rule="evenodd"></path><path id="path4" d="" stroke="none" fill="#282424" fill-rule="evenodd"></path></g></svg>